<svg width="776" height="518" viewBox="0 0 776 518" fill="none" xmlns="http://www.w3.org/2000/svg">
<mask id="mask0" mask-type="alpha" maskUnits="userSpaceOnUse" x="111" y="85" width="630" height="420">
<path d="M286.015 504.784C268.78 504.764 250.647 501.435 232.025 493.375C179 470.429 171.825 428.101 195.858 353.1C215.923 290.487 110.594 249.244 111.001 183.638C111.09 169.275 115.238 156.087 122.391 144.352C148.337 101.781 213.822 78.2904 268.601 86.6896C325.513 95.4138 361.257 137.686 411.245 159.337C481.848 189.916 546.279 141.099 570.702 132.197C717.75 78.6035 773.138 270.825 722.255 326.406C665.295 388.625 579.017 367.665 512.378 373.58C474.644 376.932 435.189 424.836 424.023 436.717C411.101 450.468 356.111 504.701 286.334 504.784H286.015Z" fill="white"/>
</mask>
<g mask="url(#mask0)">
<path fill-rule="evenodd" clip-rule="evenodd" d="M195.858 353.1C215.923 290.487 110.594 249.244 111.001 183.638C111.09 169.275 115.238 156.087 122.391 144.352C148.337 101.781 213.822 78.2904 268.601 86.6896C325.513 95.4138 361.257 137.686 411.245 159.337C481.848 189.916 546.279 141.099 570.702 132.197C717.75 78.6035 773.138 270.825 722.255 326.406C665.295 388.625 579.017 367.665 512.378 373.58C474.644 376.932 435.189 424.836 424.023 436.717C407.892 453.883 326.201 534.138 232.025 493.375C179 470.429 171.825 428.101 195.858 353.1Z" fill="#00B4D8"/>
</g>
<mask id="mask1" mask-type="alpha" maskUnits="userSpaceOnUse" x="123" y="107" width="570" height="375">
<path d="M227.442 346.331C209.515 249.603 126.551 240.478 123.571 181.22C120.788 125.969 221.11 102.059 271.959 108.494C324.783 115.179 357.156 152.179 402.854 171.111C424.093 179.913 458.277 179.44 481.097 177.201C505.627 174.793 529.502 167.671 554.327 167.329C600.241 166.698 645.031 195.733 669.214 227.06C687.951 251.332 699.53 287.543 687.986 315.474C659.779 383.73 553.154 355.748 490.817 362.49C455.52 366.307 431.711 372.982 386.238 432.798C339.731 493.972 278.222 490.342 247.05 463.562" fill="white"/>
</mask>
<g mask="url(#mask1)">
<path fill-rule="evenodd" clip-rule="evenodd" d="M227.442 346.331C209.515 249.603 126.551 240.478 123.571 181.22C120.788 125.969 221.11 102.059 271.959 108.494C324.783 115.179 357.156 152.179 402.854 171.111C424.093 179.913 458.277 179.44 481.097 177.201C505.627 174.793 529.502 167.671 554.327 167.329C600.241 166.698 645.031 195.733 669.214 227.06C687.951 251.332 699.53 287.543 687.986 315.474C659.779 383.73 553.154 355.748 490.817 362.49C455.52 366.307 431.711 372.982 386.238 432.798C339.731 493.972 278.222 490.342 247.05 463.562C198.602 421.94 233.689 380.027 227.442 346.331Z" fill="#C44848" fill-opacity="0.0342275"/>
</g>
<mask id="mask2" mask-type="alpha" maskUnits="userSpaceOnUse" x="123" y="141" width="223" height="341">
<path d="M126.033 180.253C130.482 239.444 213.653 247.116 233.973 343.512C241.051 377.09 207.01 419.608 256.481 460.372C277.485 477.686 311.453 484.678 345.057 469.619C307.953 490.172 269.577 482.916 247.05 463.562C198.602 421.94 233.688 380.027 227.442 346.331C209.515 249.603 126.551 240.478 123.57 181.22C122.764 165.184 130.651 151.795 143.485 141.014" fill="white"/>
</mask>
<g mask="url(#mask2)">
<path fill-rule="evenodd" clip-rule="evenodd" d="M126.033 180.253C130.482 239.444 213.653 247.116 233.973 343.512C241.051 377.09 207.01 419.608 256.481 460.372C277.485 477.686 311.453 484.678 345.057 469.619C307.953 490.172 269.577 482.916 247.05 463.562C198.602 421.94 233.688 380.027 227.442 346.331C209.515 249.603 126.551 240.478 123.57 181.22C122.764 165.184 130.651 151.795 143.485 141.014C131.802 151.777 124.878 164.864 126.033 180.253Z" fill="black" fill-opacity="0.0811571"/>
</g>
<path opacity="0.112305" fill-rule="evenodd" clip-rule="evenodd" d="M575.508 286.646L468.923 225.169L264.214 343.525C258.525 346.816 258.529 355.016 264.222 358.302L352.306 409.106C360.527 413.849 370.659 413.843 378.874 409.093L575.512 295.399C578.883 293.45 578.88 288.591 575.508 286.646Z" fill="black"/>
<path fill-rule="evenodd" clip-rule="evenodd" d="M350.048 247.436C350.048 247.436 351.519 249.611 350.534 252.505C349.55 255.4 348.489 257.751 347.961 257.651C347.436 257.548 345.928 257.791 344.692 255.911C343.461 254.032 339.949 249.535 340.775 246.444C341.601 243.35 343.232 241.108 345.992 242.163L350.048 247.436Z" fill="#DBF1FB"/>
<path fill-rule="evenodd" clip-rule="evenodd" d="M550.597 260.248L527.771 275.786L556.797 280.654L562.303 266.993L550.597 260.248Z" fill="#2B274D"/>
<path fill-rule="evenodd" clip-rule="evenodd" d="M419.341 364.067C419.341 364.067 385.517 349.718 385.517 348.89C385.517 348.059 417.255 339.687 417.255 339.687L423.046 353.359L419.341 364.067Z" fill="#2B274D"/>
<path fill-rule="evenodd" clip-rule="evenodd" d="M383.899 397.011C383.843 396.967 383.789 396.924 383.733 396.878C383.581 396.75 383.435 396.622 383.29 396.482C383.264 396.46 383.241 396.44 383.218 396.417C383.052 396.258 382.893 396.088 382.736 395.916C382.692 395.867 382.652 395.814 382.609 395.763C382.494 395.633 382.383 395.498 382.275 395.358C382.231 395.297 382.182 395.237 382.135 395.177C382.022 395.024 381.913 394.867 381.805 394.704C381.776 394.66 381.744 394.618 381.719 394.576C381.579 394.357 381.443 394.131 381.311 393.897C381.182 393.662 381.06 393.419 380.943 393.172C380.925 393.135 380.91 393.092 380.89 393.054C380.799 392.856 380.712 392.652 380.629 392.444C380.603 392.384 380.58 392.324 380.556 392.26C380.508 392.137 380.465 392.011 380.421 391.885C380.351 391.685 380.282 391.483 380.217 391.274C380.178 391.141 380.14 391.009 380.102 390.869C380.054 390.697 380.009 390.523 379.965 390.345C379.929 390.194 379.892 390.04 379.859 389.883C379.827 389.732 379.795 389.58 379.766 389.422C379.733 389.252 379.703 389.076 379.674 388.898C379.654 388.76 379.632 388.618 379.612 388.478C379.586 388.287 379.564 388.094 379.543 387.896C379.527 387.765 379.512 387.633 379.502 387.499C379.481 387.27 379.464 387.033 379.45 386.794C379.445 386.698 379.439 386.602 379.434 386.504C379.417 386.156 379.407 385.806 379.407 385.445C379.405 385.104 379.412 384.759 379.425 384.411C379.43 384.294 379.436 384.18 379.442 384.061C379.455 383.818 379.467 383.574 379.486 383.327C379.496 383.203 379.507 383.081 379.517 382.955C379.539 382.696 379.565 382.437 379.596 382.176C379.607 382.076 379.617 381.97 379.63 381.869C379.674 381.507 379.726 381.143 379.782 380.78C379.79 380.731 379.801 380.684 379.808 380.64C379.86 380.318 379.915 380 379.978 379.681C380.003 379.554 380.03 379.424 380.057 379.296C380.106 379.05 380.157 378.804 380.214 378.559C380.246 378.418 380.277 378.277 380.312 378.139C380.368 377.902 380.429 377.662 380.49 377.424C380.527 377.283 380.563 377.142 380.602 377.001C380.67 376.747 380.744 376.491 380.82 376.237C380.853 376.115 380.888 375.998 380.925 375.876C381.037 375.506 381.155 375.137 381.278 374.767C381.288 374.736 381.299 374.712 381.31 374.683C381.424 374.341 381.543 374.001 381.668 373.659C381.709 373.549 381.751 373.441 381.793 373.328C381.89 373.07 381.99 372.815 382.093 372.554C382.141 372.432 382.19 372.31 382.24 372.19C382.348 371.922 382.462 371.656 382.577 371.39C382.617 371.297 382.658 371.198 382.699 371.104C382.857 370.746 383.019 370.391 383.186 370.033C383.228 369.946 383.273 369.857 383.313 369.767C383.446 369.495 383.577 369.219 383.716 368.947C383.812 368.751 383.914 368.56 384.016 368.368C384.11 368.186 384.206 368.004 384.302 367.82C384.572 367.319 384.85 366.826 385.137 366.338C385.234 366.17 385.333 366.003 385.432 365.839C385.553 365.641 385.673 365.44 385.796 365.24C385.906 365.067 386.019 364.891 386.134 364.714C386.258 364.518 386.384 364.322 386.512 364.129C386.594 364.004 386.68 363.882 386.765 363.757C387.118 363.23 387.483 362.708 387.859 362.2C387.862 362.195 387.868 362.19 387.868 362.19C388.137 361.825 388.406 361.473 388.679 361.122C388.893 360.853 389.106 360.587 389.323 360.323C389.369 360.274 389.411 360.219 389.451 360.166C389.714 359.853 389.976 359.548 390.245 359.246C390.32 359.159 390.399 359.076 390.476 358.99C390.665 358.778 390.854 358.566 391.047 358.36C391.157 358.242 391.269 358.131 391.379 358.013C391.547 357.84 391.714 357.665 391.882 357.496C392.002 357.377 392.125 357.259 392.244 357.136C392.41 356.976 392.572 356.819 392.738 356.661C392.867 356.538 393.001 356.419 393.131 356.296C393.295 356.145 393.458 355.997 393.624 355.854C393.755 355.738 393.887 355.622 394.019 355.507C394.189 355.364 394.358 355.22 394.527 355.081C394.657 354.971 394.788 354.864 394.916 354.761C395.096 354.621 395.277 354.48 395.453 354.343C395.576 354.249 395.698 354.155 395.819 354.064C396.018 353.916 396.217 353.773 396.419 353.633C396.521 353.56 396.623 353.484 396.725 353.414C397.027 353.208 397.329 353.004 397.633 352.812C397.652 352.8 397.67 352.789 397.689 352.777C398.004 352.579 398.315 352.391 398.631 352.208C398.914 352.044 399.197 351.893 399.475 351.746C399.581 351.691 399.684 351.632 399.791 351.581C400.001 351.474 400.213 351.372 400.42 351.276C400.515 351.231 400.608 351.187 400.701 351.141C400.997 351.007 401.296 350.879 401.588 350.762C401.883 350.645 402.174 350.537 402.465 350.438C402.56 350.404 402.65 350.377 402.744 350.346C402.94 350.284 403.137 350.222 403.333 350.164C403.445 350.131 403.56 350.101 403.673 350.07C403.852 350.023 404.027 349.979 404.206 349.939C404.318 349.914 404.434 349.885 404.547 349.86C404.711 349.829 404.875 349.799 405.041 349.77C405.172 349.746 405.301 349.725 405.432 349.706C405.587 349.686 405.738 349.668 405.889 349.653C406.027 349.637 406.166 349.619 406.305 349.61C406.44 349.598 406.572 349.592 406.706 349.587C406.871 349.579 407.036 349.573 407.197 349.571C407.421 349.571 407.648 349.571 407.868 349.58C407.889 349.585 407.912 349.585 407.934 349.587C408.154 349.598 408.37 349.619 408.581 349.644C408.645 349.649 408.709 349.656 408.77 349.665C409.004 349.698 409.237 349.733 409.464 349.781C409.526 349.792 409.585 349.809 409.646 349.822C409.829 349.865 410.011 349.905 410.189 349.957C410.279 349.981 410.365 350.01 410.448 350.038C410.595 350.083 410.736 350.127 410.877 350.18C411.049 350.242 411.22 350.312 411.387 350.388C411.469 350.422 411.553 350.454 411.633 350.49C411.879 350.607 412.12 350.73 412.355 350.866L400.509 344.019C400.275 343.886 400.035 343.763 399.791 343.646C399.708 343.609 399.625 343.578 399.543 343.542C396.849 342.377 393.662 342.631 390.932 343.525C388.187 344.421 385.539 345.97 383.278 347.751C383.209 347.808 383.142 347.865 383.074 347.919C382.945 348.023 382.815 348.128 382.685 348.236C374.404 355.071 368.462 365.823 367.678 376.574C367.406 380.265 367.815 384.509 369.848 387.692C369.858 387.705 369.866 387.716 369.874 387.732C369.903 387.777 369.931 387.819 369.962 387.86C370.069 388.021 370.178 388.178 370.295 388.332C370.339 388.395 370.386 388.452 370.432 388.516C370.539 388.654 370.651 388.787 370.766 388.92C370.807 388.97 370.848 389.021 370.894 389.071C371.05 389.246 371.209 389.415 371.375 389.573C371.397 389.595 371.422 389.618 371.446 389.637C371.59 389.777 371.737 389.906 371.89 390.035C371.945 390.079 372 390.126 372.055 390.168C372.185 390.272 372.317 390.372 372.451 390.467C372.506 390.506 372.56 390.545 372.617 390.585C372.805 390.713 372.993 390.838 373.19 390.95L385.033 397.793C384.836 397.679 384.647 397.558 384.462 397.429C384.404 397.393 384.35 397.351 384.296 397.312C384.159 397.215 384.028 397.118 383.899 397.011Z" fill="#413E6D"/>
<path fill-rule="evenodd" clip-rule="evenodd" d="M398.63 352.208C387.98 358.346 379.371 373.225 379.407 385.445C379.443 397.666 388.104 402.589 398.757 396.453C409.408 390.313 418.015 375.434 417.979 363.213C417.946 350.997 409.282 346.068 398.63 352.208Z" fill="#57527F"/>
<path fill-rule="evenodd" clip-rule="evenodd" d="M398.653 359.911C391.709 363.91 386.099 373.613 386.121 381.575C386.145 389.538 391.791 392.751 398.735 388.75C405.679 384.749 411.289 375.049 411.265 367.085C411.243 359.122 405.594 355.909 398.653 359.911Z" fill="#7C496F"/>
<path fill-rule="evenodd" clip-rule="evenodd" d="M398.63 352.208C401.74 350.415 404.679 349.567 407.285 349.567V351.019C404.875 351.019 402.134 351.865 399.358 353.467C389.125 359.365 380.829 373.707 380.864 385.439C380.884 392.966 384.424 397.639 390.103 397.639C392.512 397.639 395.249 396.795 398.026 395.195C408.259 389.298 416.556 374.953 416.523 363.218C416.501 355.695 412.962 351.019 407.285 351.019V349.567C413.605 349.567 417.956 354.565 417.979 363.213C418.015 375.434 409.408 390.313 398.757 396.453C395.647 398.245 392.706 399.095 390.103 399.095C383.781 399.095 379.431 394.097 379.407 385.445C379.371 373.225 387.98 358.346 398.63 352.208Z" fill="#686592"/>
<mask id="mask3" mask-type="alpha" maskUnits="userSpaceOnUse" x="386" y="358" width="26" height="33">
<path d="M398.653 359.911C391.709 363.91 386.099 373.613 386.121 381.575C386.144 389.538 391.791 392.751 398.734 388.75C405.679 384.749 411.289 375.049 411.265 367.085C411.25 361.446 408.413 358.19 404.293 358.19C402.595 358.19 400.679 358.743 398.653 359.911Z" fill="white"/>
</mask>
<g mask="url(#mask3)">
<path fill-rule="evenodd" clip-rule="evenodd" d="M397.538 369.154L397.383 360.352L398.032 359.462L397.919 368.933C397.858 368.967 397.793 368.995 397.731 369.031C397.665 369.068 397.603 369.113 397.538 369.154ZM385.169 379.854L385.985 380.397L386.373 379.767L386.672 379.204C386.672 379.204 386.656 379.201 386.632 379.199L393.984 375.91C394.023 376.413 394.143 376.843 394.329 377.195L387.843 388.457L389.71 389.801L395.118 378.015C395.209 378.069 395.303 378.107 395.404 378.142L390.277 389.93L390.607 389.889L391.092 390.473L391.946 389.718L392.89 389.598L396.592 378.19C396.962 378.113 397.351 377.961 397.755 377.727C397.976 377.597 398.194 377.447 398.406 377.283L402.104 384.264L402.919 384.804L403.074 384.428L402.729 383.738L402.579 383.775L404.712 381.575L399.713 375.955C399.826 375.81 399.933 375.665 400.035 375.515L405.278 380.785L406.093 381.328L405.992 380.363L405.482 380.398L406.937 377.651L407.362 378.03L407.943 377.835L407.127 377.293L400.967 373.774C401.273 373.01 401.465 372.226 401.502 371.48L409.747 365.625L409.666 363.944L410.411 363.021L409.637 362.324L409.444 362.615L401.315 369.935C401.273 369.811 401.222 369.698 401.166 369.592L409.393 361.829L408.727 360.897L408.796 360.388L407.979 359.848L400.312 368.724C400.003 368.566 399.642 368.495 399.247 368.526L400.581 358.903L400.715 358.998L401.59 358.053L400.772 357.512L398.045 358.333L398.035 359.185L397.353 358.733L394.629 361.072L396.212 370.282C395.735 370.798 395.313 371.398 394.965 372.036L386.894 372.058L385.496 375.667L386.313 376.209L387.195 375.393L387.096 375.322L394.237 373.783C394.191 373.946 394.151 374.111 394.115 374.269L385.302 376.544L385.169 379.854Z" fill="black"/>
</g>
<mask id="mask4" mask-type="alpha" maskUnits="userSpaceOnUse" x="386" y="358" width="26" height="33">
<path d="M386.121 381.575C386.144 389.538 391.791 392.751 398.734 388.75C405.679 384.749 411.289 375.049 411.265 367.085C411.25 361.446 408.413 358.19 404.293 358.19C402.595 358.19 400.679 358.743 398.653 359.911C391.709 363.91 386.099 373.613 386.121 381.575Z" fill="#02CFFF"/>
</mask>
<g mask="url(#mask4)">
<path fill-rule="evenodd" clip-rule="evenodd" d="M398.172 359.275L395.447 361.611L397.028 370.823C396.553 371.34 396.128 371.941 395.78 372.579L387.713 372.597L386.314 376.21L395.055 374.325C395.007 374.488 394.968 374.653 394.935 374.814L386.118 377.088L385.986 380.398L394.801 376.451C394.84 376.955 394.962 377.384 395.146 377.735L388.661 388.998L390.526 390.342L395.935 378.557C396.026 378.609 396.12 378.649 396.221 378.682L391.093 390.474L393.708 390.139L397.411 378.732C397.78 378.654 398.17 378.502 398.571 378.27C398.793 378.142 399.011 377.991 399.222 377.823L402.92 384.805L405.53 382.114L400.532 376.495C400.644 376.354 400.749 376.205 400.851 376.057L406.095 381.329L407.944 377.835L401.784 374.316C402.091 373.556 402.282 372.768 402.32 372.023L410.566 366.166L410.411 363.021L402.134 370.478C402.091 370.356 402.039 370.24 401.986 370.133L410.211 362.373L408.797 360.388L401.132 369.265C400.819 369.105 400.46 369.035 400.065 369.066L401.591 358.053L398.862 358.874L398.735 369.476C398.676 369.507 398.608 369.538 398.547 369.571C398.483 369.612 398.42 369.656 398.354 369.695L398.172 359.275Z" fill="#F1D6F7"/>
</g>
<path fill-rule="evenodd" clip-rule="evenodd" d="M397.059 387.602C404.002 383.599 409.615 373.901 409.589 365.936C409.58 362.719 408.654 360.279 407.095 358.777C409.645 359.95 411.252 362.845 411.265 367.085C411.288 375.049 405.679 384.749 398.735 388.75C394.592 391.135 390.916 390.956 388.614 388.736C390.85 389.766 393.814 389.471 397.059 387.602Z" fill="#040404"/>
<path fill-rule="evenodd" clip-rule="evenodd" d="M521.784 317.052C521.729 317.007 521.673 316.966 521.62 316.918C521.472 316.796 521.327 316.666 521.184 316.53C521.162 316.509 521.137 316.488 521.114 316.464C520.953 316.308 520.795 316.144 520.642 315.971C520.598 315.922 520.559 315.872 520.514 315.823C520.403 315.694 520.294 315.56 520.188 315.423C520.14 315.365 520.094 315.306 520.05 315.245C519.937 315.093 519.828 314.938 519.724 314.782C519.696 314.737 519.666 314.694 519.637 314.652C519.499 314.439 519.366 314.217 519.239 313.984C519.11 313.755 518.991 313.514 518.874 313.271C518.858 313.234 518.841 313.194 518.824 313.156C518.733 312.96 518.649 312.76 518.565 312.554C518.543 312.498 518.52 312.433 518.494 312.374C518.447 312.254 518.405 312.127 518.362 312.006C518.293 311.807 518.226 311.609 518.161 311.402C518.122 311.272 518.082 311.139 518.047 311.006C518.001 310.837 517.953 310.664 517.912 310.488C517.875 310.337 517.841 310.189 517.807 310.034C517.774 309.887 517.746 309.734 517.718 309.58C517.685 309.412 517.657 309.239 517.628 309.066C517.606 308.932 517.585 308.792 517.565 308.654C517.54 308.463 517.519 308.274 517.497 308.08C517.481 307.949 517.467 307.819 517.455 307.688C517.435 307.462 517.42 307.227 517.407 306.994C517.401 306.897 517.394 306.804 517.389 306.706C517.374 306.368 517.363 306.021 517.363 305.665C517.362 305.328 517.371 304.99 517.383 304.647C517.385 304.535 517.394 304.418 517.398 304.303C517.41 304.061 517.424 303.824 517.442 303.582C517.45 303.458 517.461 303.337 517.472 303.213C517.494 302.961 517.52 302.706 517.548 302.452C517.56 302.347 517.569 302.249 517.584 302.146C517.627 301.789 517.677 301.431 517.734 301.075C517.741 301.026 517.748 300.979 517.757 300.933C517.81 300.622 517.864 300.31 517.924 299.994C517.948 299.868 517.977 299.736 518.004 299.612C518.053 299.369 518.101 299.129 518.157 298.889C518.189 298.751 518.221 298.611 518.253 298.473C518.312 298.239 518.368 298.006 518.428 297.771C518.466 297.633 518.502 297.491 518.539 297.353C518.608 297.104 518.681 296.851 518.753 296.602C518.788 296.486 518.821 296.368 518.858 296.25C518.968 295.885 519.083 295.52 519.205 295.157C519.213 295.128 519.226 295.101 519.234 295.072C519.348 294.736 519.467 294.4 519.59 294.067C519.629 293.958 519.671 293.848 519.713 293.74C519.807 293.485 519.907 293.233 520.006 292.978C520.055 292.856 520.103 292.738 520.152 292.619C520.259 292.356 520.37 292.091 520.484 291.83C520.523 291.735 520.563 291.641 520.604 291.551C520.759 291.199 520.918 290.845 521.082 290.499C521.122 290.41 521.167 290.322 521.211 290.232C521.338 289.963 521.47 289.695 521.605 289.425C521.699 289.236 521.8 289.046 521.898 288.856C521.994 288.677 522.086 288.496 522.184 288.316C522.448 287.827 522.722 287.338 523.003 286.857C523.098 286.692 523.197 286.53 523.296 286.366C523.413 286.171 523.532 285.976 523.653 285.779C523.761 285.605 523.872 285.433 523.983 285.261C524.107 285.068 524.231 284.876 524.357 284.684C524.441 284.56 524.523 284.441 524.604 284.317C524.954 283.798 525.311 283.286 525.682 282.787C525.686 282.777 525.691 282.776 525.691 282.776C525.956 282.415 526.221 282.067 526.491 281.725C526.7 281.459 526.912 281.198 527.126 280.94C527.168 280.888 527.209 280.834 527.252 280.784C527.505 280.475 527.767 280.175 528.03 279.876C528.106 279.791 528.182 279.707 528.258 279.625C528.446 279.415 528.632 279.209 528.822 279.008C528.928 278.891 529.04 278.778 529.148 278.663C529.313 278.494 529.478 278.322 529.641 278.155C529.763 278.035 529.88 277.918 530.001 277.802C530.162 277.645 530.323 277.489 530.486 277.33C530.614 277.212 530.743 277.091 530.874 276.973C531.034 276.827 531.195 276.682 531.355 276.536C531.487 276.424 531.617 276.308 531.75 276.198C531.915 276.056 532.078 275.914 532.247 275.776C532.376 275.67 532.503 275.564 532.632 275.462C532.806 275.324 532.982 275.187 533.161 275.05C533.279 274.959 533.398 274.864 533.517 274.777C533.714 274.633 533.911 274.489 534.109 274.351C534.209 274.281 534.308 274.205 534.411 274.137C534.708 273.933 535.003 273.734 535.305 273.544C535.323 273.53 535.339 273.522 535.36 273.509C535.668 273.314 535.974 273.13 536.286 272.95C536.565 272.788 536.841 272.639 537.116 272.496C537.221 272.438 537.325 272.385 537.428 272.334C537.635 272.229 537.841 272.127 538.049 272.03C538.14 271.986 538.233 271.942 538.323 271.902C538.616 271.768 538.908 271.641 539.198 271.528C539.486 271.408 539.775 271.304 540.06 271.205C540.152 271.177 540.243 271.146 540.335 271.116C540.529 271.055 540.722 270.989 540.914 270.937C541.024 270.906 541.136 270.873 541.248 270.846C541.424 270.799 541.598 270.754 541.774 270.716C541.886 270.688 541.998 270.664 542.109 270.639C542.272 270.608 542.433 270.578 542.595 270.549C542.725 270.527 542.852 270.506 542.979 270.487C543.13 270.467 543.28 270.448 543.43 270.433C543.567 270.417 543.705 270.401 543.84 270.39C543.973 270.382 544.104 270.378 544.235 270.371C544.396 270.363 544.556 270.355 544.716 270.355C544.939 270.351 545.16 270.355 545.377 270.364C545.398 270.364 545.421 270.367 545.443 270.367C545.658 270.382 545.872 270.401 546.08 270.426C546.143 270.433 546.206 270.437 546.266 270.445C546.498 270.48 546.726 270.514 546.952 270.558C547.011 270.57 547.069 270.586 547.126 270.6C547.308 270.643 547.488 270.684 547.664 270.733C547.752 270.757 547.835 270.785 547.92 270.812C548.061 270.858 548.2 270.903 548.339 270.953C548.51 271.015 548.678 271.087 548.842 271.156C548.924 271.194 549.005 271.222 549.084 271.26C549.326 271.373 549.563 271.494 549.795 271.629L538.132 264.89C537.905 264.755 537.668 264.634 537.428 264.524C537.349 264.487 537.265 264.455 537.183 264.419C534.532 263.273 531.396 263.521 528.707 264.401C526.007 265.286 523.401 266.809 521.172 268.564C521.108 268.616 521.04 268.675 520.974 268.725C520.845 268.83 520.717 268.934 520.59 269.039C512.441 275.769 506.591 286.353 505.818 296.933C505.552 300.565 505.953 304.743 507.955 307.879C507.964 307.892 507.972 307.905 507.979 307.915C508.009 307.96 508.038 308.001 508.067 308.043C508.172 308.202 508.279 308.356 508.392 308.509C508.439 308.568 508.484 308.627 508.529 308.684C508.636 308.823 508.746 308.958 508.856 309.085C508.899 309.134 508.939 309.187 508.984 309.236C509.136 309.406 509.294 309.572 509.457 309.729C509.48 309.753 509.503 309.771 509.526 309.792C509.669 309.928 509.815 310.056 509.963 310.183C510.017 310.226 510.07 310.272 510.128 310.315C510.254 310.416 510.384 310.515 510.516 310.609C510.571 310.649 510.625 310.687 510.68 310.727C510.863 310.852 511.05 310.973 511.242 311.083L522.901 317.822C522.709 317.71 522.522 317.59 522.338 317.461C522.282 317.426 522.228 317.386 522.173 317.346C522.042 317.253 521.912 317.153 521.784 317.052Z" fill="#413E6D"/>
<path fill-rule="evenodd" clip-rule="evenodd" d="M536.286 272.95C525.801 278.992 517.327 293.64 517.362 305.664C517.396 317.691 525.924 322.545 536.409 316.5C546.894 310.457 555.367 295.811 555.333 283.783C555.298 271.758 546.772 266.906 536.286 272.95Z" fill="#57527F"/>
<path fill-rule="evenodd" clip-rule="evenodd" d="M536.307 280.53C529.473 284.468 523.95 294.018 523.972 301.855C523.995 309.696 529.553 312.86 536.386 308.92C543.222 304.978 548.743 295.434 548.721 287.594C548.701 279.755 543.141 276.592 536.307 280.53Z" fill="#7C496F"/>
<path fill-rule="evenodd" clip-rule="evenodd" d="M536.286 272.95C539.346 271.185 542.239 270.35 544.802 270.35V271.779C542.433 271.779 539.735 272.613 537.003 274.19C526.93 279.995 518.764 294.113 518.798 305.663C518.816 313.069 522.302 317.669 527.89 317.669C530.261 317.669 532.96 316.837 535.692 315.261C545.765 309.457 553.93 295.337 553.898 283.787C553.876 276.383 550.393 271.779 544.805 271.779L544.802 270.35H544.805C551.024 270.35 555.308 275.268 555.333 283.783C555.367 295.81 546.894 310.457 536.409 316.501C533.348 318.265 530.455 319.101 527.89 319.101C521.67 319.101 517.388 314.183 517.362 305.664C517.327 293.64 525.801 278.992 536.286 272.95Z" fill="#686592"/>
<mask id="mask5" mask-type="alpha" maskUnits="userSpaceOnUse" x="523" y="278" width="26" height="33">
<path d="M536.307 280.531C529.473 284.468 523.95 294.018 523.972 301.856C523.995 309.696 529.553 312.861 536.387 308.92C543.223 304.979 548.744 295.434 548.721 287.594C548.707 282.042 545.915 278.836 541.859 278.837C540.188 278.837 538.301 279.381 536.307 280.531Z" fill="white"/>
</mask>
<g mask="url(#mask5)">
<path fill-rule="evenodd" clip-rule="evenodd" d="M535.21 289.63L535.057 280.965L535.694 280.092L535.586 289.414C535.525 289.445 535.46 289.474 535.4 289.51C535.335 289.546 535.272 289.592 535.21 289.63ZM523.035 300.162L523.839 300.694L524.22 300.076L524.514 299.52C524.514 299.52 524.502 299.52 524.475 299.519L531.71 296.278C531.751 296.775 531.87 297.201 532.052 297.544L525.667 308.63L527.504 309.954L532.829 298.35C532.917 298.403 533.012 298.445 533.11 298.476L528.063 310.081L528.39 310.04L528.867 310.613L529.708 309.872L530.636 309.752L534.282 298.526C534.642 298.448 535.027 298.298 535.423 298.069C535.64 297.942 535.856 297.794 536.065 297.63L539.705 304.501L540.508 305.037L540.659 304.662L540.32 303.985L540.171 304.021L542.273 301.854L537.351 296.327C537.461 296.186 537.568 296.036 537.668 295.892L542.827 301.082L543.631 301.614L543.532 300.661L543.029 300.701L544.461 297.993L544.88 298.369L545.453 298.173L544.647 297.641L538.585 294.176C538.888 293.429 539.075 292.652 539.113 291.921L547.228 286.156L547.147 284.5L547.881 283.593L547.12 282.908L546.929 283.195L538.929 290.4C538.886 290.279 538.836 290.166 538.782 290.061L546.879 282.423L546.224 281.505L546.292 281.004L545.489 280.469L537.943 289.203C537.637 289.05 537.282 288.979 536.894 289.012L538.206 279.54L538.338 279.636L539.199 278.706L538.395 278.17L535.708 278.976L535.699 279.814L535.029 279.373L532.347 281.674L533.905 290.739C533.438 291.249 533.02 291.84 532.676 292.465L524.734 292.485L523.357 296.044L524.161 296.573L525.029 295.772L524.932 295.701L531.963 294.189C531.915 294.347 531.876 294.508 531.842 294.669L523.164 296.905L523.035 300.162Z" fill="black"/>
</g>
<mask id="mask6" mask-type="alpha" maskUnits="userSpaceOnUse" x="523" y="278" width="26" height="33">
<path d="M536.307 280.531C529.473 284.468 523.95 294.018 523.972 301.856C523.995 309.696 529.553 312.861 536.387 308.92C543.223 304.979 548.744 295.434 548.721 287.594C548.707 282.042 545.915 278.836 541.859 278.837C540.188 278.837 538.301 279.381 536.307 280.531Z" fill="white"/>
</mask>
<g mask="url(#mask6)">
<path fill-rule="evenodd" clip-rule="evenodd" d="M535.834 279.905L533.15 282.206L534.709 291.275C534.24 291.784 533.824 292.373 533.481 292.998L525.538 293.017L524.162 296.574L532.765 294.721C532.72 294.879 532.679 295.042 532.647 295.202L523.97 297.438L523.84 300.694L532.515 296.812C532.554 297.309 532.674 297.732 532.858 298.078L526.471 309.164L528.309 310.487L533.634 298.887C533.723 298.936 533.816 298.978 533.913 299.008L528.868 310.613L531.441 310.289L535.086 299.059C535.446 298.981 535.83 298.835 536.228 298.605C536.448 298.476 536.66 298.329 536.868 298.164L540.508 305.038L543.076 302.387L538.156 296.859C538.266 296.718 538.372 296.571 538.472 296.424L543.632 301.615L545.454 298.173L539.389 294.713C539.693 293.961 539.881 293.186 539.918 292.455L548.035 286.689L547.882 283.594L539.734 290.933C539.691 290.813 539.642 290.699 539.587 290.593L547.687 282.956L546.293 281.004L538.746 289.737C538.44 289.584 538.086 289.516 537.697 289.543L539.2 278.706L536.512 279.513L536.391 289.948C536.328 289.977 536.265 290.007 536.203 290.043C536.139 290.078 536.079 290.123 536.015 290.164L535.834 279.905Z" fill="#F1D6F7"/>
</g>
<path fill-rule="evenodd" clip-rule="evenodd" d="M534.739 307.788C541.572 303.848 547.096 294.299 547.074 286.461C547.062 283.298 546.153 280.896 544.62 279.415C547.127 280.572 548.712 283.418 548.721 287.594C548.743 295.434 543.222 304.982 536.386 308.921C532.313 311.27 528.69 311.089 526.427 308.902C528.628 309.918 531.543 309.628 534.739 307.788Z" fill="#040404"/>
<path fill-rule="evenodd" clip-rule="evenodd" d="M576.525 243.719L575.557 243.533V221.544C575.557 221.544 536.717 183.018 484.361 163.994C480.802 162.701 476.855 163.03 473.561 164.892C454.213 175.831 385.985 214.449 378.809 219.161L339.745 262.552C339.745 262.552 299.488 283.854 286.934 299.245C286.934 299.245 285.391 304.963 284.511 313.429C284.511 313.429 279.554 318.504 279.554 324.107V335.292C279.554 335.292 286.879 373.815 369.153 392.066L376.313 388.656C376.313 388.656 375.871 363.807 399.882 348.965C399.882 348.965 419.707 338.339 419.34 364.067L513.438 309.725C513.438 309.725 514.397 284.338 536.53 270.394C536.53 270.394 554.3 259.398 556.797 280.654C556.797 280.654 570.359 268.362 575.748 261.845C576.693 260.701 577.257 259.294 577.37 257.815L578.273 246.002C578.357 244.907 577.606 243.927 576.525 243.719Z" fill="#FDF4FF"/>
<path fill-rule="evenodd" clip-rule="evenodd" d="M423.83 273.398L423.046 273.971L428.362 302.989C428.395 303.263 431.296 327.182 427.275 356.301L428.234 355.749C432.133 326.814 429.265 303.15 429.225 302.856L423.83 273.398Z" fill="#73D6ED" fill-opacity="0.56"/>
<path fill-rule="evenodd" clip-rule="evenodd" d="M547.636 198.471C531.532 186.766 509.507 173.131 484.361 163.994C480.802 162.701 476.854 163.03 473.562 164.891C454.213 175.831 385.985 214.449 378.809 219.161L375.066 223.32L400.767 254.46L448.815 259.107L536.803 206.845C536.803 206.845 543.943 202.761 547.636 198.471Z" fill="#FDF4FF"/>
<path fill-rule="evenodd" clip-rule="evenodd" d="M424.334 311.369L563.011 226.016C547.904 212.949 536.803 206.846 536.803 206.846L446.804 258.596C387.326 240.124 378.809 219.161 378.809 219.161L339.746 262.552C354.066 303.01 424.334 311.369 424.334 311.369Z" fill="#73D6ED"/>
<path fill-rule="evenodd" clip-rule="evenodd" d="M378.809 219.161L339.745 262.552C354.066 303.01 424.334 311.369 424.334 311.369L446.804 258.596C387.326 240.124 378.809 219.161 378.809 219.161Z" fill="#70DDF3" fill-opacity="0.73"/>
<path opacity="0.154576" fill-rule="evenodd" clip-rule="evenodd" d="M378.809 219.161L377.79 220.292C378.305 236.34 385.85 266.721 423.945 311.317C424.196 311.351 424.334 311.369 424.334 311.369L446.803 258.596C387.326 240.124 378.809 219.161 378.809 219.161Z" fill="white"/>
<path fill-rule="evenodd" clip-rule="evenodd" d="M404.09 217.696L421.814 207.482C423.297 206.629 425.121 206.631 426.598 207.49L460.578 227.2C462.053 228.055 462.049 230.179 460.573 231.03L442.875 241.231C441.323 242.127 439.415 242.122 437.867 241.223L404.085 221.628C402.574 220.751 402.576 218.571 404.09 217.696Z" fill="#86E1F4"/>
<path fill-rule="evenodd" clip-rule="evenodd" d="M404.532 219.665C404.532 219.513 404.577 219.235 404.881 219.062L422.603 208.847C423.09 208.568 423.64 208.422 424.201 208.422C424.765 208.422 425.32 208.57 425.806 208.853L459.787 228.564C460.063 228.725 460.103 228.978 460.103 229.115C460.103 229.252 460.061 229.505 459.784 229.667L442.085 239.865C441.567 240.167 440.976 240.322 440.376 240.322C439.773 240.322 439.179 240.163 438.66 239.863L404.878 220.265C404.577 220.091 404.532 219.813 404.532 219.665ZM404.085 221.627L437.867 241.223C438.643 241.674 439.51 241.9 440.376 241.9C441.239 241.9 442.102 241.674 442.875 241.23L460.574 231.03C462.049 230.179 462.053 228.055 460.579 227.2L426.598 207.49C425.859 207.059 425.029 206.846 424.201 206.846C423.377 206.846 422.554 207.056 421.815 207.482L404.09 217.696C402.577 218.571 402.574 220.751 404.085 221.627Z" fill="#435068"/>
<path fill-rule="evenodd" clip-rule="evenodd" d="M339.745 262.552C339.745 262.552 299.488 283.854 286.934 299.245C302.188 322.129 335.93 341.631 354.477 347.89C361.437 350.236 369.096 349.168 375.154 345.025L424.334 311.369C424.331 311.365 354.065 303.01 339.745 262.552Z" fill="#F7F7FF"/>
<path fill-rule="evenodd" clip-rule="evenodd" d="M428.987 306.744C426.007 306.344 410.032 303.988 392.832 297.631C381.739 293.532 372.317 288.592 364.829 282.953C355.837 276.183 349.635 268.381 346.381 259.75L378.531 221.633C379.98 223.902 383.168 228.005 389.603 233.085C398.427 240.048 415.438 250.367 446.372 259.973L446.977 260.161L447.525 259.847L536.803 208.513C539.35 210.004 548.608 215.666 560.565 225.825L428.987 306.744ZM536.803 206.845L446.804 258.596C387.326 240.124 378.809 219.161 378.809 219.161L339.745 262.552C354.066 303.01 424.334 311.369 424.334 311.369L563.011 226.016C547.904 212.949 536.803 206.845 536.803 206.845Z" fill="#435068"/>
<path fill-rule="evenodd" clip-rule="evenodd" d="M448.148 257.82C447.287 258.317 446.256 258.426 445.308 258.126C444.915 258.002 444.526 257.878 444.138 257.754L417.703 310.32C421.841 311.072 424.334 311.369 424.334 311.369L429.57 308.145L448.815 259.107L448.148 257.82Z" fill="#435068"/>
<path fill-rule="evenodd" clip-rule="evenodd" d="M378.809 219.161L339.745 262.552C340.288 264.084 340.919 265.568 341.618 267.008L379.977 221.205C379.106 219.894 378.809 219.161 378.809 219.161Z" fill="#435068"/>
<path fill-rule="evenodd" clip-rule="evenodd" d="M536.803 206.845L530.539 210.445C534.539 213.522 545.537 222.27 553.938 231.599L563.011 226.016C547.904 212.949 536.803 206.845 536.803 206.845Z" fill="#435068"/>
<path fill-rule="evenodd" clip-rule="evenodd" d="M286.934 299.245C286.934 299.245 285.391 304.963 284.511 313.429C284.511 313.429 290.612 320.79 297.611 325.609L298.773 313.214C294.213 308.771 290.159 304.085 286.934 299.245Z" fill="#73D6ED" fill-opacity="0.32"/>
<path fill-rule="evenodd" clip-rule="evenodd" d="M297.945 322.025C294.735 319.24 288.675 313.887 284.923 309.981C284.777 311.069 284.637 312.218 284.51 313.429C284.51 313.429 290.612 320.789 297.611 325.608L297.945 322.025Z" fill="white"/>
<path fill-rule="evenodd" clip-rule="evenodd" d="M368.754 383.963C368.464 378.097 364.41 373.094 358.731 371.568C287.276 352.383 280.237 320.54 280.237 320.54C279.823 321.611 279.554 322.805 279.554 324.107V335.292C279.554 335.292 286.879 373.815 369.153 392.066L368.754 383.963Z" fill="#73D6ED" fill-opacity="0.28"/>
<path fill-rule="evenodd" clip-rule="evenodd" d="M570.59 225.52C569.854 226.109 569.369 226.955 569.235 227.886C568.79 230.965 568.674 238.079 575.556 243.533V221.544L570.59 225.52Z" fill="#CE5464"/>
<path fill-rule="evenodd" clip-rule="evenodd" d="M575.557 227.425L571.355 230.795V235.254L575.557 231.954V227.425Z" fill="#FFBA54"/>
<path fill-rule="evenodd" clip-rule="evenodd" d="M522.632 196.64L521.65 196.074C521.186 195.806 520.614 195.806 520.15 196.074L474.954 222.137C474.562 222.363 474.562 222.928 474.954 223.154L475.828 223.658C476.428 224.003 477.166 224.003 477.765 223.658L522.632 197.786C523.073 197.531 523.073 196.895 522.632 196.64Z" fill="#E9F4FE"/>
<path fill-rule="evenodd" clip-rule="evenodd" d="M511.369 190.156L510.388 189.59C509.924 189.322 509.352 189.322 508.887 189.59L463.691 215.652C463.299 215.879 463.299 216.444 463.691 216.67L464.566 217.172C465.164 217.517 465.903 217.517 466.502 217.172L511.369 191.302C511.81 191.047 511.81 190.411 511.369 190.156Z" fill="#E9F4FE"/>
<path fill-rule="evenodd" clip-rule="evenodd" d="M500.105 183.669L499.125 183.105C498.662 182.838 498.09 182.838 497.626 183.106L452.428 209.169C452.036 209.395 452.036 209.96 452.429 210.185L453.303 210.689C453.902 211.033 454.64 211.033 455.241 210.687L500.105 184.816C500.548 184.56 500.548 183.924 500.105 183.669Z" fill="#E9F4FE"/>
<path fill-rule="evenodd" clip-rule="evenodd" d="M488.844 177.185L487.863 176.619C487.398 176.351 486.826 176.351 486.362 176.619L441.163 202.683C440.771 202.908 440.771 203.473 441.163 203.698L442.039 204.203C442.638 204.549 443.378 204.549 443.977 204.203L488.844 178.331C489.285 178.076 489.285 177.44 488.844 177.185Z" fill="#E9F4FE"/>
<path fill-rule="evenodd" clip-rule="evenodd" d="M477.58 170.698L476.599 170.134C476.135 169.867 475.564 169.867 475.1 170.135L429.901 196.199C429.51 196.424 429.51 196.989 429.901 197.215L430.776 197.719C431.376 198.065 432.115 198.065 432.714 197.719L477.58 171.845C478.021 171.59 478.021 170.953 477.58 170.698Z" fill="#E9F4FE"/>
<path fill-rule="evenodd" clip-rule="evenodd" d="M339.58 383.64L334.757 372.523C334.062 370.924 332.578 369.96 330.917 369.409C323.477 366.942 307.655 359.949 290.428 342.456C289.748 341.771 288.594 341.968 288.213 342.852L285.856 347.952C293.056 358.071 308.199 372.372 339.58 383.64Z" fill="#435068"/>
<path fill-rule="evenodd" clip-rule="evenodd" d="M359.255 383.794L357.882 380.861C356.738 378.407 354.606 376.554 352.014 375.757L346.575 374.079C345.736 373.822 344.947 374.604 345.2 375.442L346.882 381.041C347.045 381.581 347.469 382.005 348.011 382.165L358.089 385.147C358.9 385.385 359.612 384.558 359.255 383.794Z" fill="#435068"/>
<path fill-rule="evenodd" clip-rule="evenodd" d="M287.023 339.02L284.809 335.55C284.313 334.776 283.399 334.378 282.496 334.55L281.335 334.764C280.979 334.833 280.766 335.198 280.888 335.538C281.303 336.687 282.313 339.104 283.946 340.688C284.369 341.101 285.027 341.145 285.503 340.795L286.881 339.783C287.121 339.605 287.186 339.27 287.023 339.02Z" fill="#435068"/>
<path fill-rule="evenodd" clip-rule="evenodd" d="M522.05 270.985C522.886 270.126 521.799 268.777 520.803 269.435C501.535 282.191 444.261 320.422 437.717 328.518C429.833 338.277 454.89 325.283 459.681 321.504C468.282 314.725 505.142 288.321 522.05 270.985Z" fill="#73D6ED" fill-opacity="0.36"/>
<path fill-rule="evenodd" clip-rule="evenodd" d="M436.803 287.048L427.392 308.732L442.717 299.156L436.803 287.048Z" fill="#435068"/>
<path fill-rule="evenodd" clip-rule="evenodd" d="M437.924 300.048L433.813 299.03C433.813 299.03 431.148 300.511 432.935 303.306L436.629 303.957L437.924 300.048Z" fill="#413E6D"/>
<path fill-rule="evenodd" clip-rule="evenodd" d="M436.629 303.957C436.629 303.957 435.652 298.819 436.629 296.412C437.607 294.003 440.411 294.067 441.647 294.459C442.887 294.85 449.276 297.193 449.276 297.193C449.276 297.193 452.34 299.533 452.404 301.747C452.47 303.957 451.949 307.213 449.471 307.082C446.993 306.951 436.629 303.957 436.629 303.957Z" fill="#D3E8F2"/>
<path fill-rule="evenodd" clip-rule="evenodd" d="M375.154 345.025C369.096 349.168 361.437 350.236 354.476 347.89C350.974 346.709 346.931 345.055 342.574 342.994L331.515 351.914L352.246 360.534C357.982 362.865 362.627 363.324 368.261 362.213C373.59 361.158 375.861 356.883 375.861 356.883L380.201 341.572L375.154 345.025Z" fill="#73D6ED" fill-opacity="0.32"/>
<path fill-rule="evenodd" clip-rule="evenodd" d="M375.154 345.025C374.846 345.236 374.529 345.434 374.212 345.629L371.135 361.226C374.415 359.593 375.861 356.883 375.861 356.883L380.201 341.572L375.154 345.025Z" fill="#FFBA54"/>
<path fill-rule="evenodd" clip-rule="evenodd" d="M339.745 262.552C339.745 262.552 299.488 283.854 286.934 299.245C302.188 322.129 335.93 341.631 354.477 347.89C361.437 350.236 369.096 349.168 375.154 345.025L424.334 311.369C424.331 311.365 354.065 303.01 339.745 262.552Z" fill="#86E1F4" fill-opacity="0.12"/>
<path fill-rule="evenodd" clip-rule="evenodd" d="M370.284 357.123C364.35 358.466 359.421 358.111 353.28 355.81L335.267 348.889L331.515 351.914L352.246 360.534C357.982 362.865 362.627 363.325 368.261 362.213C373.59 361.158 375.861 356.883 375.861 356.883L376.955 353.022C375.751 354.461 373.606 356.371 370.284 357.123Z" fill="white"/>
<path fill-rule="evenodd" clip-rule="evenodd" d="M342.575 342.993C328.526 336.355 311.208 325.507 298.205 312.658L297.611 325.608C297.611 325.608 306.596 342.761 331.514 351.914L342.575 342.993Z" fill="#435068"/>
<path fill-rule="evenodd" clip-rule="evenodd" d="M331.114 349.43C319.352 344.893 311.485 338.536 306.915 333.935C302.803 329.795 300.562 326.314 299.826 325.077L300.172 317.533C310.693 327.106 324.556 336.486 338.524 343.453L331.114 349.43ZM298.205 312.658L297.611 325.608C297.611 325.608 306.596 342.76 331.515 351.914L342.575 342.993C328.526 336.355 311.208 325.507 298.205 312.658Z" fill="#73D6ED" fill-opacity="0.56"/>
<path fill-rule="evenodd" clip-rule="evenodd" d="M300.172 317.533L299.826 325.077C300.561 326.314 302.804 329.795 306.915 333.935C311.486 338.536 319.352 344.893 331.115 349.43L331.96 348.747C320.339 344.219 312.547 337.921 308.009 333.351C303.897 329.212 301.658 325.73 300.92 324.496L301.199 318.446C300.855 318.143 300.507 317.838 300.172 317.533Z" fill="black"/>
<path fill-rule="evenodd" clip-rule="evenodd" d="M341.609 267.015L298.205 312.659C298.412 312.863 298.621 313.065 298.83 313.267L299.433 312.637L341.385 268.522C353.958 292.837 387.124 304.233 407.633 309.102C382.843 320.183 346.699 339.755 342.544 342.014L341.686 342.571C341.982 342.711 342.278 342.855 342.57 342.993H342.575C342.575 342.993 383.973 320.393 410.387 308.837C390.258 304.347 354.107 292.894 341.609 267.015Z" fill="#73D6ED" fill-opacity="0.56"/>
<path fill-rule="evenodd" clip-rule="evenodd" d="M358.655 382.512L351.394 380.364C350.852 380.202 350.429 379.78 350.264 379.24L348.933 374.808L346.575 374.079C345.736 373.822 344.947 374.604 345.2 375.442L346.882 381.042C347.045 381.581 347.469 382.005 348.011 382.165L358.089 385.147C358.9 385.385 359.612 384.558 359.255 383.794L358.655 382.512Z" fill="#F6FFFF"/>
<path fill-rule="evenodd" clip-rule="evenodd" d="M282.913 335.539C282.789 335.198 283.004 334.833 283.359 334.764L283.781 334.688C283.384 334.519 282.94 334.466 282.496 334.55L281.335 334.764C280.979 334.833 280.766 335.198 280.888 335.539C281.303 336.687 282.313 339.104 283.946 340.688C284.369 341.101 285.027 341.146 285.503 340.795L285.836 340.551C284.283 338.966 283.317 336.655 282.913 335.539Z" fill="#F6FFFF"/>
<path fill-rule="evenodd" clip-rule="evenodd" d="M460.574 231.03L442.875 241.231C442.101 241.677 441.241 241.899 440.379 241.899C439.511 241.899 438.644 241.673 437.867 241.223L404.085 221.628C402.574 220.751 402.576 218.571 404.09 217.696L421.815 207.482C422.553 207.057 423.376 206.844 424.202 206.844C425.029 206.844 425.857 207.059 426.599 207.49L460.579 227.2C462.053 228.054 462.05 230.179 460.574 231.03ZM461.018 226.445L427.04 206.734C426.179 206.234 425.197 205.97 424.202 205.97C423.212 205.97 422.235 206.232 421.378 206.725L403.652 216.94C402.667 217.508 402.079 218.526 402.078 219.661C402.075 220.795 402.662 221.813 403.645 222.383L437.428 241.979C438.324 242.499 439.346 242.772 440.379 242.772C441.408 242.772 442.422 242.501 443.313 241.987L461.011 231.787C461.978 231.23 462.556 230.232 462.558 229.117C462.559 228.003 461.983 227.004 461.018 226.445Z" fill="#F1D6F7"/>
<path fill-rule="evenodd" clip-rule="evenodd" d="M301.102 320.54H300.035L300.532 322.017L310.654 331.575L329.092 343.59L335.74 345.698L336.384 345.18C312.16 333.061 301.102 320.54 301.102 320.54Z" fill="black"/>
<path fill-rule="evenodd" clip-rule="evenodd" d="M300.035 320.54C300.035 320.54 313.882 335.582 335.739 345.698L333.937 347.153C333.937 347.153 311.147 336.289 299.969 321.963L300.035 320.54Z" fill="#73D6ED" fill-opacity="0.56"/>
<path fill-rule="evenodd" clip-rule="evenodd" d="M289.744 344.343C290.047 343.64 290.784 343.336 291.46 343.49C291.116 343.147 290.772 342.808 290.428 342.456C289.748 341.771 288.594 341.968 288.213 342.852L285.855 347.952C286.283 348.552 286.74 349.167 287.225 349.796L289.744 344.343Z" fill="#F6FFFF"/>
<path fill-rule="evenodd" clip-rule="evenodd" d="M571.355 250.602C574.052 248.593 576.311 246.864 578.218 245.363C578.033 244.547 577.389 243.884 576.526 243.719L575.557 243.533L554.371 260.121C554.021 260.396 554.307 260.951 554.734 260.824C556.781 260.207 561.405 258.007 571.355 250.602Z" fill="#EED6F3"/>
<path fill-rule="evenodd" clip-rule="evenodd" d="M489.858 238.447L489.075 239.018L494.391 268.037C494.426 268.311 497.325 292.231 493.305 321.351L494.263 320.798C498.163 291.864 495.292 268.2 495.255 267.906L489.858 238.447Z" fill="#73D6ED" fill-opacity="0.56"/>
<path fill-rule="evenodd" clip-rule="evenodd" d="M490.239 270.806L499.252 265.259L492.174 232.506L485.354 236.428L490.239 270.806Z" fill="#435068"/>
<path fill-rule="evenodd" clip-rule="evenodd" d="M488.292 234.739L494.391 268.037C494.392 268.05 494.4 268.122 494.413 268.237L495.224 267.737L489.096 234.277L488.292 234.739Z" fill="#5B3952"/>
<path fill-rule="evenodd" clip-rule="evenodd" d="M419.341 364.067L513.438 309.725C513.438 309.725 513.534 307.221 514.348 303.352L418.993 358.094C419.245 359.824 419.373 361.801 419.341 364.067Z" fill="#57527F"/>
<path fill-rule="evenodd" clip-rule="evenodd" d="M490.199 275.77C490.199 275.77 491.467 280.576 484.627 284.882C484.627 284.882 479.53 288.444 478.996 284.479L490.199 275.77Z" fill="#73D6ED" fill-opacity="0.56"/>
<path fill-rule="evenodd" clip-rule="evenodd" d="M489.685 275.708L479.767 281.996C479.237 282.332 478.927 282.926 478.957 283.551L478.995 284.479C479.019 285.018 479.619 285.329 480.075 285.037L488.382 279.74C489.643 278.937 490.378 277.525 490.311 276.033C490.298 275.72 489.951 275.54 489.685 275.708Z" fill="#57527F"/>
<path fill-rule="evenodd" clip-rule="evenodd" d="M561.934 353.292V353.092C561.934 353.144 561.933 353.198 561.93 353.251C561.93 353.274 561.928 353.296 561.927 353.321C561.93 353.309 561.933 353.3 561.934 353.292Z" fill="#FF9D00"/>
<path fill-rule="evenodd" clip-rule="evenodd" d="M561.934 349.295V349.097C561.934 349.149 561.933 349.203 561.93 349.257C561.93 349.28 561.928 349.301 561.927 349.324C561.93 349.313 561.933 349.306 561.934 349.295Z" fill="#FF9D00"/>
<path fill-rule="evenodd" clip-rule="evenodd" d="M561.934 345.302V345.101C561.934 345.154 561.933 345.207 561.93 345.259C561.93 345.284 561.928 345.306 561.927 345.328C561.93 345.32 561.933 345.311 561.934 345.302Z" fill="#FF9D00"/>
<path fill-rule="evenodd" clip-rule="evenodd" d="M561.934 341.306V341.106C561.934 341.159 561.933 341.213 561.93 341.266C561.93 341.289 561.928 341.311 561.927 341.334C561.93 341.324 561.933 341.316 561.934 341.306Z" fill="#FF9D00"/>
<path fill-rule="evenodd" clip-rule="evenodd" d="M561.934 337.311V337.111C561.934 337.165 561.933 337.216 561.93 337.269C561.93 337.294 561.928 337.316 561.927 337.339C561.93 337.33 561.933 337.321 561.934 337.311Z" fill="#FF9D00"/>
<path fill-rule="evenodd" clip-rule="evenodd" d="M561.934 333.315V333.116C561.934 333.17 561.933 333.223 561.93 333.275C561.93 333.298 561.928 333.32 561.927 333.344C561.93 333.335 561.933 333.323 561.934 333.315Z" fill="#FF9D00"/>
<path fill-rule="evenodd" clip-rule="evenodd" d="M503.006 365.362C503.002 365.282 503 365.199 503 365.117V365.337C503.002 365.346 503.004 365.355 503.006 365.362Z" fill="#FF9D00"/>
<path fill-rule="evenodd" clip-rule="evenodd" d="M503.006 361.345C503.002 361.263 503 361.181 503 361.097V361.318C503.002 361.328 503.004 361.336 503.006 361.345Z" fill="#FF9D00"/>
<path fill-rule="evenodd" clip-rule="evenodd" d="M503.006 357.327C503.002 357.243 503 357.162 503 357.079V357.3C503.002 357.309 503.004 357.318 503.006 357.327Z" fill="#FF9D00"/>
<path fill-rule="evenodd" clip-rule="evenodd" d="M503.006 353.308C503.002 353.225 503 353.143 503 353.06V353.28C503.002 353.29 503.004 353.298 503.006 353.308Z" fill="#FF9D00"/>
<path fill-rule="evenodd" clip-rule="evenodd" d="M586.921 458.706V458.667V454.42L528.789 454.802V459.235V459.33V459.435H528.795C528.844 460.871 529.574 462.288 530.998 463.111L551.034 474.684C554.766 476.838 559.367 476.837 563.099 474.683L584.984 462.043C586.257 461.309 586.899 460.032 586.919 458.747H586.921V458.706Z" fill="#F57650"/>
<path opacity="0.239095" fill-rule="evenodd" clip-rule="evenodd" d="M532.238 458.663L528.789 454.803V459.235V459.329V459.435H528.795C528.845 460.872 529.574 462.288 530.998 463.11L532.238 463.826V458.663Z" fill="white"/>
<path fill-rule="evenodd" clip-rule="evenodd" d="M556.296 476.275C558.633 476.423 561.003 475.894 563.099 474.683L584.984 462.043C586.257 461.309 586.9 460.032 586.919 458.747H586.922V458.706V458.667V454.42L556.296 470.98V476.275Z" fill="#EF6440"/>
<path opacity="0.132766" fill-rule="evenodd" clip-rule="evenodd" d="M583.502 462.898L584.984 462.043C586.258 461.309 586.899 460.032 586.919 458.748H586.921V458.706V458.667V454.42L583.502 456.846V462.898Z" fill="white"/>
<path fill-rule="evenodd" clip-rule="evenodd" d="M556.296 476.275C557.912 476.378 559.542 476.147 561.089 475.601V470.348H556.296V476.275Z" fill="#F57650"/>
<path fill-rule="evenodd" clip-rule="evenodd" d="M551.502 474.934C553.012 475.718 554.644 476.169 556.295 476.275V469.446H551.502V474.934Z" fill="#EF6440"/>
<path fill-rule="evenodd" clip-rule="evenodd" d="M584.982 450.975L563.531 438.609C560.167 436.669 556.024 436.67 552.661 438.609L530.999 451.1C528.049 452.801 528.049 457.053 530.998 458.755L551.034 470.329C554.767 472.483 559.367 472.482 563.099 470.327L584.984 457.687C587.571 456.195 587.57 452.467 584.982 450.975Z" fill="#FF9B76"/>
<path fill-rule="evenodd" clip-rule="evenodd" d="M557.427 418.355L557.401 465.359L537.896 454.115L550.914 414.6L557.427 418.355Z" fill="#F57650"/>
<path fill-rule="evenodd" clip-rule="evenodd" d="M557.401 418.355V465.359L576.985 454.062L563.967 414.581L557.401 418.355Z" fill="#EF6440"/>
<path fill-rule="evenodd" clip-rule="evenodd" d="M550.914 414.6L557.427 418.354L563.967 414.582L557.454 410.826L550.914 414.6Z" fill="#FF9B76"/>
<path fill-rule="evenodd" clip-rule="evenodd" d="M557.401 445.98L571.618 437.783L567.377 424.925L557.401 430.677V445.98Z" fill="#B2B2E4"/>
<path fill-rule="evenodd" clip-rule="evenodd" d="M543.261 437.829L557.411 445.988L557.421 430.689L547.498 424.969L543.261 437.829Z" fill="#CFCDF6"/>
<path fill-rule="evenodd" clip-rule="evenodd" d="M184.824 321.058V321.019V316.772L126.692 317.154V321.587V321.681V321.787H126.698C126.747 323.223 127.477 324.64 128.9 325.463L148.937 337.036C152.669 339.19 157.269 339.189 161.002 337.035L182.887 324.395C184.16 323.661 184.802 322.384 184.822 321.099H184.824V321.058Z" fill="#F57650"/>
<path opacity="0.239095" fill-rule="evenodd" clip-rule="evenodd" d="M130.141 321.015L126.692 317.155V321.587V321.681V321.787H126.698C126.747 323.224 127.477 324.64 128.9 325.462L130.141 326.178V321.015Z" fill="white"/>
<path fill-rule="evenodd" clip-rule="evenodd" d="M154.199 338.627C156.535 338.775 158.906 338.246 161.002 337.035L182.887 324.395C184.16 323.661 184.803 322.384 184.822 321.099H184.825V321.058V321.019V316.772L154.199 333.332V338.627Z" fill="#EF6440"/>
<path opacity="0.132766" fill-rule="evenodd" clip-rule="evenodd" d="M181.405 325.25L182.887 324.395C184.16 323.661 184.802 322.384 184.822 321.1H184.824V321.058V321.019V316.772L181.405 319.198V325.25Z" fill="white"/>
<path fill-rule="evenodd" clip-rule="evenodd" d="M154.199 338.627C155.814 338.73 157.445 338.499 158.992 337.953V332.7H154.199V338.627Z" fill="#F57650"/>
<path fill-rule="evenodd" clip-rule="evenodd" d="M149.405 337.286C150.915 338.07 152.546 338.521 154.198 338.627V331.798H149.405V337.286Z" fill="#EF6440"/>
<path fill-rule="evenodd" clip-rule="evenodd" d="M182.885 313.327L161.434 300.961C158.07 299.021 153.927 299.022 150.564 300.961L128.902 313.452C125.952 315.153 125.952 319.405 128.901 321.107L148.937 332.681C152.67 334.835 157.27 334.833 161.001 332.679L182.887 320.039C185.474 318.546 185.473 314.819 182.885 313.327Z" fill="#FF9B76"/>
<path fill-rule="evenodd" clip-rule="evenodd" d="M155.33 280.707L155.304 327.711L135.799 316.467L148.817 276.952L155.33 280.707Z" fill="#F57650"/>
<path fill-rule="evenodd" clip-rule="evenodd" d="M155.304 280.707V327.711L174.888 316.414L161.87 276.933L155.304 280.707Z" fill="#EF6440"/>
<path fill-rule="evenodd" clip-rule="evenodd" d="M148.817 276.952L155.329 280.706L161.87 276.934L155.357 273.178L148.817 276.952Z" fill="#FF9B76"/>
<path fill-rule="evenodd" clip-rule="evenodd" d="M155.304 308.332L169.521 300.135L165.28 287.276L155.304 293.029V308.332Z" fill="#B2B2E4"/>
<path fill-rule="evenodd" clip-rule="evenodd" d="M141.164 300.181L155.314 308.339L155.323 293.041L145.401 287.321L141.164 300.181Z" fill="#CFCDF6"/>
<path fill-rule="evenodd" clip-rule="evenodd" d="M345.301 146.448L324.346 177.046L333.588 182.408L354.543 151.809L345.301 146.448Z" fill="#0096C7"/>
<path fill-rule="evenodd" clip-rule="evenodd" d="M333.536 182.484C333.553 182.459 333.572 182.434 333.589 182.408L324.346 177.046C324.303 177.108 324.259 177.166 324.215 177.226C324.184 177.271 324.151 177.317 324.117 177.36C324.087 177.399 324.057 177.436 324.026 177.474C323.981 177.531 323.935 177.589 323.888 177.644C323.86 177.674 323.833 177.705 323.807 177.735C323.728 177.822 323.649 177.907 323.569 177.988C323.547 178.009 323.529 178.03 323.508 178.05C323.463 178.094 323.418 178.135 323.373 178.176C323.338 178.208 323.304 178.24 323.271 178.27C323.223 178.311 323.174 178.35 323.125 178.39C323.093 178.417 323.061 178.444 323.028 178.47C322.972 178.511 322.917 178.55 322.862 178.589C322.835 178.609 322.807 178.63 322.779 178.649C322.696 178.705 322.61 178.758 322.525 178.808C322.436 178.859 322.346 178.904 322.258 178.946C322.232 178.958 322.208 178.968 322.184 178.979C322.134 179.002 322.083 179.02 322.034 179.04C321.963 179.067 321.892 179.091 321.823 179.112C321.78 179.124 321.737 179.138 321.696 179.148C321.654 179.159 321.612 179.167 321.571 179.175C321.518 179.185 321.467 179.194 321.416 179.2C321.384 179.203 321.353 179.207 321.321 179.209C321.261 179.214 321.202 179.215 321.143 179.214C321.124 179.214 321.105 179.214 321.084 179.214C321.007 179.21 320.932 179.201 320.86 179.187C320.845 179.185 320.83 179.18 320.816 179.178C320.757 179.163 320.697 179.148 320.641 179.128C320.624 179.123 320.607 179.117 320.591 179.111C320.521 179.084 320.454 179.054 320.389 179.017L329.633 184.378C329.637 184.381 329.644 184.384 329.649 184.388C329.698 184.414 329.747 184.438 329.799 184.46C329.809 184.464 329.822 184.468 329.833 184.472C329.85 184.479 329.867 184.484 329.883 184.491C329.909 184.498 329.931 184.509 329.956 184.515C329.989 184.525 330.024 184.531 330.058 184.539C330.073 184.543 330.087 184.546 330.104 184.549C330.111 184.551 330.117 184.553 330.123 184.554C330.183 184.564 330.243 184.571 330.303 184.575C330.312 184.575 330.319 184.575 330.327 184.575C330.348 184.576 330.367 184.575 330.387 184.576C330.425 184.576 330.464 184.579 330.503 184.576C330.524 184.576 330.544 184.572 330.566 184.571C330.595 184.568 330.627 184.565 330.659 184.562C330.683 184.558 330.706 184.558 330.729 184.555C330.756 184.55 330.786 184.541 330.813 184.536C330.854 184.529 330.896 184.521 330.939 184.51C330.957 184.506 330.976 184.503 330.996 184.497C331.019 184.491 331.043 184.48 331.067 184.474C331.136 184.453 331.206 184.429 331.278 184.401C331.3 184.393 331.323 184.388 331.347 184.378C331.373 184.366 331.401 184.353 331.427 184.341C331.451 184.33 331.476 184.319 331.499 184.308C331.59 184.266 331.68 184.221 331.769 184.169C331.852 184.12 331.937 184.067 332.022 184.011C332.05 183.992 332.076 183.971 332.104 183.951C332.16 183.912 332.216 183.873 332.271 183.831C332.303 183.806 332.335 183.778 332.368 183.752C332.418 183.712 332.465 183.674 332.513 183.632C332.548 183.602 332.58 183.569 332.616 183.538C332.661 183.497 332.706 183.455 332.751 183.413C332.758 183.406 332.765 183.4 332.771 183.394C332.785 183.381 332.798 183.364 332.812 183.35C332.893 183.269 332.971 183.185 333.05 183.097C333.063 183.081 333.079 183.066 333.094 183.05C333.106 183.035 333.117 183.02 333.13 183.005C333.177 182.951 333.224 182.893 333.269 182.836C333.29 182.81 333.313 182.784 333.335 182.758C333.343 182.746 333.352 182.734 333.359 182.722C333.393 182.678 333.426 182.633 333.458 182.588C333.484 182.553 333.511 182.52 333.536 182.484Z" fill="#0096C7"/>
<path fill-rule="evenodd" clip-rule="evenodd" d="M333.381 170.826L324.139 165.465L355.17 120.149L364.414 125.512L333.381 170.826Z" fill="#FF9B76"/>
<path fill-rule="evenodd" clip-rule="evenodd" d="M324.139 165.465C324.109 165.504 324.081 165.542 324.051 165.579C324.047 165.584 324.043 165.588 324.038 165.594C324.008 165.628 323.98 165.66 323.949 165.689C323.926 165.712 323.902 165.732 323.877 165.752C323.866 165.761 323.854 165.773 323.842 165.782C323.806 165.81 323.77 165.834 323.733 165.856C323.693 165.879 323.655 165.896 323.616 165.911C323.607 165.914 323.6 165.916 323.592 165.918C323.556 165.93 323.52 165.939 323.484 165.943C323.483 165.944 323.478 165.945 323.474 165.945C323.436 165.948 323.399 165.947 323.364 165.942C323.364 165.941 323.363 165.94 323.362 165.94C323.326 165.933 323.291 165.921 323.26 165.902L332.503 171.265C332.504 171.266 332.506 171.266 332.507 171.266C332.516 171.272 332.529 171.278 332.54 171.283C332.551 171.288 332.563 171.292 332.576 171.295C332.584 171.298 332.595 171.3 332.605 171.302C332.606 171.302 332.606 171.303 332.609 171.303C332.61 171.303 332.611 171.303 332.612 171.303C332.626 171.306 332.638 171.307 332.652 171.308C332.666 171.309 332.681 171.309 332.696 171.309C332.703 171.308 332.711 171.307 332.719 171.306C332.721 171.306 332.724 171.306 332.728 171.306C332.734 171.304 332.74 171.304 332.746 171.303C332.765 171.3 332.784 171.296 332.804 171.291C332.814 171.288 332.824 171.284 332.834 171.281C332.843 171.278 332.85 171.275 332.859 171.272C332.867 171.269 332.873 171.268 332.881 171.265C332.913 171.251 332.945 171.236 332.976 171.218C333.014 171.197 333.049 171.172 333.085 171.144C333.097 171.135 333.109 171.124 333.12 171.114C333.145 171.094 333.17 171.074 333.193 171.05C333.195 171.048 333.197 171.047 333.199 171.045C333.224 171.02 333.247 170.995 333.271 170.968C333.275 170.964 333.278 170.959 333.281 170.956C333.285 170.951 333.29 170.946 333.295 170.941C333.303 170.928 333.316 170.915 333.324 170.902C333.34 170.883 333.355 170.863 333.371 170.841C333.373 170.836 333.378 170.831 333.381 170.826L324.139 165.465Z" fill="#FF9B76"/>
<path fill-rule="evenodd" clip-rule="evenodd" d="M325.183 160.844L315.941 155.481L323.902 163.648L333.145 169.009L325.183 160.844Z" fill="#FF9B76"/>
<mask id="mask7" mask-type="alpha" maskUnits="userSpaceOnUse" x="315" y="155" width="11" height="6">
<path d="M315.941 155.482L325.184 160.843C325.099 160.756 325.004 160.683 324.901 160.623L315.657 155.261C315.761 155.32 315.855 155.394 315.941 155.482Z" fill="white"/>
</mask>
<g mask="url(#mask7)">
<path fill-rule="evenodd" clip-rule="evenodd" d="M324.901 160.623L315.657 155.261C315.761 155.32 315.855 155.394 315.941 155.482L325.183 160.844C325.098 160.756 325.004 160.683 324.901 160.623Z" fill="#8BAFBF"/>
<path fill-rule="evenodd" clip-rule="evenodd" d="M322.567 162.822C322.61 162.781 322.653 162.744 322.697 162.707C322.719 162.69 322.74 162.67 322.761 162.653C322.827 162.603 322.894 162.557 322.96 162.52C323.013 162.49 323.064 162.465 323.117 162.443C323.13 162.436 323.148 162.429 323.161 162.424C323.192 162.412 323.223 162.402 323.252 162.394C323.268 162.388 323.284 162.382 323.301 162.379C323.32 162.374 323.336 162.371 323.353 162.368C323.375 162.364 323.396 162.359 323.417 162.357C323.429 162.355 323.443 162.354 323.455 162.353C323.478 162.352 323.502 162.35 323.527 162.35C323.535 162.35 323.545 162.35 323.554 162.351C323.587 162.352 323.617 162.355 323.648 162.36C323.653 162.362 323.657 162.363 323.661 162.364C323.688 162.369 323.714 162.377 323.738 162.385C323.746 162.387 323.753 162.39 323.76 162.392C323.788 162.404 323.818 162.417 323.844 162.432L314.602 157.07C314.599 157.069 314.597 157.068 314.594 157.066C314.575 157.055 314.555 157.045 314.533 157.036C314.527 157.034 314.523 157.033 314.517 157.03C314.51 157.028 314.502 157.026 314.496 157.023C314.487 157.019 314.478 157.016 314.469 157.013C314.452 157.008 314.436 157.006 314.417 157.002C314.414 157.001 314.409 156.999 314.404 156.999L314.399 156.997C314.375 156.993 314.349 156.991 314.326 156.989C314.319 156.989 314.316 156.989 314.312 156.989C314.301 156.988 314.294 156.989 314.284 156.989C314.27 156.989 314.255 156.987 314.242 156.988C314.233 156.989 314.223 156.991 314.211 156.991C314.199 156.992 314.187 156.993 314.173 156.995C314.166 156.996 314.157 156.996 314.148 156.997C314.136 156.999 314.123 157.003 314.109 157.006C314.094 157.009 314.075 157.012 314.058 157.017C314.052 157.018 314.045 157.019 314.038 157.021C314.028 157.024 314.018 157.028 314.009 157.031C313.979 157.04 313.948 157.05 313.919 157.061C313.911 157.065 313.902 157.067 313.893 157.071C313.887 157.073 313.88 157.077 313.874 157.081C313.821 157.103 313.771 157.128 313.718 157.157C313.65 157.196 313.585 157.241 313.519 157.292C313.497 157.308 313.477 157.328 313.455 157.346C313.41 157.382 313.366 157.418 313.324 157.461C313.316 157.467 313.309 157.472 313.303 157.479C313.257 157.525 313.212 157.572 313.169 157.622C313.168 157.622 313.168 157.622 313.168 157.622V157.623C313.133 157.662 313.101 157.701 313.068 157.744C313.046 157.774 313.021 157.805 312.998 157.837L322.241 163.199C322.297 163.123 322.352 163.051 322.409 162.985C322.41 162.985 322.41 162.985 322.41 162.985C322.462 162.926 322.514 162.873 322.567 162.822Z" fill="#CB6F23"/>
<path fill-rule="evenodd" clip-rule="evenodd" d="M312.998 157.837L309.576 162.625L318.819 167.987L322.242 163.199L312.998 157.837Z" fill="#CB6F23"/>
<path fill-rule="evenodd" clip-rule="evenodd" d="M368.672 127.714L365.675 124.975C365.498 124.812 365.23 124.827 364.959 124.982C364.769 125.093 364.576 125.274 364.414 125.512L333.381 170.826C333.259 171.003 333.117 171.136 332.976 171.218C332.768 171.337 332.565 171.345 332.433 171.208L323.974 162.534C323.73 162.284 323.348 162.296 322.96 162.519C322.71 162.663 322.459 162.894 322.242 163.199L318.819 167.987C318.263 168.765 318.136 169.729 318.535 170.139L330.531 182.446C330.827 182.749 331.294 182.733 331.763 182.461C332.083 182.277 332.406 181.975 332.679 181.576L368.507 129.256C368.902 128.682 368.975 127.991 368.672 127.714Z" fill="#F28000"/>
<path fill-rule="evenodd" clip-rule="evenodd" d="M331.769 184.169C330.8 184.727 329.887 184.715 329.322 184.135L317.326 171.831C316.901 171.393 316.731 170.659 316.849 169.766C316.967 168.87 317.357 167.922 317.951 167.094L321.371 162.31C321.837 161.659 322.385 161.141 322.955 160.811C323.837 160.304 324.669 160.316 325.183 160.844L333.145 169.01L356.185 135.366C356.205 134.498 356.219 133.628 356.217 132.755C355.669 132.651 345.281 130.683 330.236 139.353C315.194 148.024 304.85 161.939 304.306 162.671C304.429 204.056 329.14 210.728 330.442 211.078C331.36 209.767 348.832 184.84 354.543 151.809L333.589 182.408C333.062 183.177 332.433 183.786 331.769 184.169Z" fill="#52BFA5"/>
<path fill-rule="evenodd" clip-rule="evenodd" d="M304.306 162.671L295.063 157.31C295.151 186.962 307.863 198.793 315.541 203.247L324.783 208.609C317.105 204.155 304.394 192.323 304.306 162.671Z" fill="#E7AFF4"/>
<path fill-rule="evenodd" clip-rule="evenodd" d="M304.382 162.569C304.387 162.561 304.395 162.553 304.399 162.546C304.412 162.529 304.425 162.51 304.441 162.491C304.448 162.48 304.457 162.468 304.467 162.457C304.48 162.438 304.497 162.418 304.512 162.396C304.521 162.382 304.533 162.368 304.544 162.354C304.561 162.332 304.578 162.308 304.597 162.283C304.608 162.269 304.62 162.253 304.632 162.238C304.654 162.211 304.675 162.184 304.695 162.155C304.71 162.137 304.726 162.118 304.741 162.098C304.762 162.071 304.781 162.044 304.803 162.015C304.822 161.992 304.839 161.969 304.859 161.944C304.874 161.923 304.892 161.901 304.91 161.878C304.975 161.792 305.049 161.701 305.125 161.603C305.135 161.59 305.146 161.577 305.155 161.564C305.234 161.464 305.316 161.36 305.405 161.249C305.411 161.242 305.416 161.235 305.422 161.227C305.511 161.115 305.606 160.997 305.707 160.873C305.726 160.85 305.743 160.828 305.762 160.805C305.861 160.683 305.964 160.556 306.072 160.424C306.091 160.399 306.112 160.373 306.134 160.348C306.249 160.209 306.365 160.067 306.489 159.918C306.497 159.908 306.506 159.896 306.516 159.885C306.636 159.74 306.764 159.588 306.894 159.433C306.911 159.413 306.927 159.393 306.944 159.372C307.077 159.216 307.215 159.054 307.355 158.889C307.383 158.857 307.411 158.825 307.439 158.793C307.581 158.627 307.726 158.458 307.878 158.284C307.904 158.256 307.928 158.227 307.953 158.198C308.114 158.012 308.281 157.823 308.455 157.628C308.457 157.624 308.458 157.622 308.462 157.619C308.634 157.426 308.809 157.227 308.99 157.026C309.017 156.998 309.043 156.969 309.068 156.939C309.244 156.745 309.424 156.547 309.608 156.346C309.644 156.307 309.68 156.268 309.715 156.23C309.901 156.028 310.09 155.822 310.285 155.614C310.315 155.582 310.345 155.549 310.376 155.517C310.581 155.297 310.789 155.074 311.006 154.849C311.008 154.847 311.008 154.846 311.009 154.844C311.223 154.621 311.441 154.394 311.665 154.164C311.697 154.129 311.73 154.095 311.764 154.06C311.979 153.84 312.198 153.617 312.42 153.392C312.462 153.35 312.504 153.308 312.546 153.265C312.771 153.039 313 152.811 313.232 152.581C313.266 152.546 313.301 152.514 313.335 152.479C313.588 152.231 313.843 151.982 314.105 151.729C314.114 151.72 314.124 151.71 314.134 151.701C314.394 151.45 314.658 151.198 314.926 150.946C314.955 150.919 314.982 150.892 315.012 150.865C315.274 150.618 315.541 150.37 315.813 150.12C315.857 150.079 315.902 150.038 315.946 149.996C316.214 149.752 316.485 149.506 316.757 149.26C316.807 149.216 316.856 149.173 316.905 149.13C317.184 148.881 317.464 148.632 317.752 148.382C317.79 148.347 317.831 148.313 317.87 148.279C318.171 148.018 318.475 147.755 318.785 147.493C318.792 147.487 318.8 147.48 318.808 147.474C319.115 147.214 319.427 146.954 319.741 146.694C319.778 146.665 319.814 146.636 319.849 146.606C320.155 146.355 320.465 146.104 320.777 145.855C320.83 145.812 320.884 145.77 320.937 145.728C321.245 145.482 321.557 145.238 321.873 144.994C321.929 144.951 321.984 144.908 322.039 144.865C322.361 144.618 322.685 144.372 323.013 144.128C323.057 144.096 323.101 144.063 323.144 144.031C323.489 143.774 323.837 143.52 324.19 143.267C324.196 143.262 324.201 143.259 324.206 143.255C324.556 143.003 324.912 142.754 325.267 142.508C325.31 142.478 325.351 142.448 325.395 142.419C325.739 142.181 326.087 141.947 326.437 141.714C326.496 141.674 326.557 141.634 326.616 141.594C326.963 141.366 327.313 141.139 327.665 140.915C327.726 140.876 327.787 140.836 327.849 140.798C328.207 140.571 328.57 140.346 328.934 140.125C328.98 140.097 329.027 140.069 329.073 140.042C329.459 139.809 329.845 139.579 330.237 139.353C330.514 139.193 330.791 139.037 331.067 138.884C331.149 138.838 331.233 138.793 331.315 138.748C331.512 138.638 331.71 138.531 331.906 138.425C331.993 138.38 332.079 138.333 332.163 138.288C332.394 138.165 332.622 138.046 332.848 137.928C332.889 137.908 332.93 137.886 332.971 137.866C333.238 137.729 333.501 137.597 333.766 137.467C333.839 137.43 333.91 137.396 333.983 137.36C334.177 137.265 334.372 137.171 334.563 137.079C334.646 137.041 334.73 137 334.814 136.962C335.015 136.868 335.213 136.776 335.411 136.685C335.472 136.658 335.533 136.63 335.592 136.603C335.846 136.488 336.098 136.377 336.349 136.268C336.407 136.242 336.465 136.219 336.524 136.194C336.719 136.11 336.912 136.028 337.105 135.948C337.187 135.914 337.266 135.881 337.347 135.848C337.521 135.778 337.69 135.708 337.862 135.64C337.935 135.611 338.008 135.581 338.08 135.553C338.319 135.459 338.556 135.368 338.79 135.28C338.798 135.277 338.805 135.274 338.813 135.272C339.041 135.186 339.264 135.104 339.489 135.024C339.561 134.998 339.632 134.973 339.705 134.947C339.867 134.89 340.028 134.833 340.189 134.779C340.264 134.753 340.342 134.727 340.417 134.701C340.587 134.643 340.757 134.588 340.925 134.533C340.981 134.515 341.038 134.496 341.093 134.477C341.315 134.407 341.533 134.339 341.749 134.273C341.799 134.258 341.848 134.243 341.897 134.228C342.066 134.177 342.234 134.128 342.401 134.08C342.474 134.058 342.543 134.039 342.613 134.019C342.763 133.976 342.912 133.935 343.059 133.895C343.115 133.879 343.175 133.863 343.231 133.848C343.629 133.741 344.019 133.642 344.402 133.549C344.405 133.549 344.407 133.549 344.408 133.548C344.793 133.456 345.168 133.372 345.538 133.295C345.569 133.288 345.599 133.282 345.63 133.275C345.974 133.204 346.309 133.138 346.639 133.078C346.672 133.073 346.705 133.066 346.737 133.061C347.077 133 347.409 132.944 347.734 132.894C347.745 132.892 347.759 132.891 347.771 132.889C347.934 132.864 348.095 132.84 348.255 132.818C348.294 132.813 348.332 132.808 348.372 132.803C348.491 132.787 348.608 132.771 348.726 132.756C348.782 132.749 348.837 132.743 348.892 132.736C348.992 132.724 349.09 132.712 349.185 132.702C349.245 132.695 349.303 132.689 349.361 132.682C349.453 132.673 349.547 132.663 349.637 132.654C349.694 132.648 349.75 132.643 349.806 132.637C349.9 132.628 349.993 132.62 350.085 132.612C350.134 132.608 350.186 132.603 350.236 132.599C350.347 132.59 350.457 132.582 350.567 132.574C350.595 132.572 350.622 132.57 350.648 132.567C350.782 132.558 350.916 132.55 351.046 132.542C351.087 132.54 351.122 132.539 351.161 132.537C351.253 132.532 351.345 132.527 351.435 132.523C351.479 132.521 351.522 132.519 351.564 132.518C351.655 132.513 351.747 132.51 351.835 132.507C351.881 132.506 351.925 132.505 351.969 132.503C352.06 132.502 352.148 132.499 352.235 132.497C352.271 132.497 352.306 132.496 352.343 132.495C352.463 132.493 352.58 132.492 352.695 132.492C352.717 132.492 352.739 132.492 352.759 132.492C352.852 132.492 352.946 132.493 353.036 132.493C353.074 132.494 353.109 132.495 353.146 132.495C353.219 132.497 353.295 132.497 353.366 132.499C353.401 132.5 353.438 132.501 353.475 132.502C353.553 132.503 353.63 132.506 353.705 132.508C353.729 132.51 353.754 132.51 353.776 132.511C353.873 132.515 353.967 132.519 354.059 132.524C354.082 132.525 354.106 132.527 354.13 132.528C354.198 132.53 354.265 132.535 354.33 132.539C354.357 132.54 354.382 132.542 354.409 132.544C354.494 132.55 354.575 132.556 354.653 132.562C354.667 132.562 354.681 132.564 354.695 132.564C354.784 132.572 354.868 132.579 354.951 132.586C354.971 132.588 354.99 132.59 355.01 132.593C355.079 132.599 355.147 132.606 355.21 132.612C355.221 132.613 355.233 132.615 355.245 132.616C355.318 132.624 355.384 132.631 355.449 132.639C355.465 132.641 355.481 132.643 355.496 132.645C355.548 132.652 355.598 132.658 355.646 132.664C355.656 132.666 355.669 132.667 355.678 132.669C355.733 132.676 355.782 132.682 355.829 132.69C355.842 132.691 355.854 132.694 355.865 132.695C355.902 132.7 355.936 132.706 355.967 132.711C355.975 132.712 355.983 132.714 355.991 132.715C356.026 132.721 356.057 132.726 356.086 132.731C356.096 132.732 356.105 132.734 356.113 132.736C356.129 132.738 356.146 132.741 356.157 132.743C356.165 132.745 356.171 132.746 356.177 132.748C356.193 132.75 356.206 132.753 356.217 132.755L346.973 127.393C346.963 127.392 346.949 127.388 346.932 127.385C346.928 127.384 346.922 127.383 346.918 127.382C346.903 127.38 346.886 127.376 346.866 127.373C346.861 127.373 346.857 127.371 346.852 127.371C346.849 127.37 346.848 127.37 346.844 127.37C346.816 127.365 346.783 127.359 346.746 127.353C346.74 127.351 346.734 127.351 346.729 127.35C346.695 127.344 346.659 127.339 346.619 127.333C346.609 127.331 346.598 127.329 346.587 127.328C346.539 127.321 346.489 127.314 346.435 127.307C346.427 127.305 346.416 127.304 346.407 127.303C346.358 127.296 346.305 127.29 346.25 127.282C346.236 127.281 346.222 127.279 346.208 127.277C346.143 127.269 346.074 127.261 346.001 127.254C345.991 127.252 345.982 127.252 345.971 127.251C345.906 127.243 345.837 127.237 345.765 127.23C345.747 127.228 345.727 127.226 345.707 127.224C345.625 127.217 345.541 127.21 345.449 127.203C345.438 127.202 345.426 127.201 345.414 127.2C345.335 127.194 345.251 127.188 345.163 127.182C345.151 127.181 345.138 127.181 345.123 127.179C345.112 127.179 345.099 127.178 345.087 127.178C345.021 127.173 344.952 127.169 344.882 127.166C344.861 127.164 344.839 127.162 344.817 127.162C344.725 127.157 344.63 127.153 344.532 127.149C344.51 127.149 344.486 127.147 344.462 127.147C344.388 127.144 344.309 127.142 344.231 127.14C344.196 127.139 344.16 127.138 344.125 127.137C344.051 127.136 343.976 127.134 343.901 127.133C343.866 127.132 343.83 127.132 343.793 127.132C343.704 127.131 343.609 127.13 343.515 127.13C343.494 127.13 343.474 127.13 343.452 127.13C343.338 127.13 343.219 127.132 343.098 127.134C343.064 127.134 343.029 127.135 342.995 127.136C342.907 127.137 342.817 127.139 342.725 127.142C342.682 127.143 342.636 127.144 342.591 127.146C342.503 127.149 342.413 127.152 342.321 127.156C342.292 127.157 342.265 127.157 342.237 127.159C342.222 127.159 342.206 127.16 342.192 127.161C342.102 127.165 342.009 127.169 341.919 127.175C341.88 127.177 341.843 127.179 341.803 127.181C341.673 127.188 341.539 127.196 341.404 127.206C341.378 127.208 341.352 127.21 341.325 127.212C341.216 127.22 341.105 127.228 340.991 127.238C340.942 127.242 340.893 127.246 340.844 127.25C340.752 127.258 340.658 127.267 340.563 127.275C340.508 127.281 340.45 127.286 340.394 127.292C340.303 127.301 340.209 127.311 340.116 127.321C340.061 127.327 340.002 127.333 339.944 127.339C339.846 127.351 339.748 127.363 339.649 127.374C339.593 127.381 339.538 127.388 339.482 127.394C339.366 127.409 339.247 127.425 339.128 127.441C339.089 127.446 339.052 127.451 339.013 127.457C338.853 127.479 338.692 127.503 338.527 127.527C338.523 127.528 338.518 127.528 338.512 127.53C338.504 127.53 338.498 127.531 338.492 127.533C338.167 127.582 337.834 127.637 337.494 127.699C337.462 127.705 337.427 127.711 337.396 127.717C337.066 127.776 336.73 127.842 336.388 127.914C336.356 127.92 336.325 127.926 336.295 127.932C335.926 128.011 335.549 128.094 335.165 128.187C335.162 128.187 335.161 128.188 335.159 128.188C334.777 128.279 334.386 128.379 333.988 128.486C333.973 128.49 333.958 128.493 333.943 128.497C333.902 128.509 333.859 128.522 333.817 128.533C333.668 128.572 333.521 128.614 333.371 128.657C333.3 128.677 333.229 128.697 333.159 128.717C332.992 128.766 332.823 128.816 332.653 128.867C332.603 128.882 332.557 128.896 332.507 128.911C332.289 128.976 332.071 129.045 331.85 129.116C331.794 129.134 331.739 129.153 331.682 129.17C331.514 129.226 331.346 129.281 331.175 129.339C331.097 129.365 331.021 129.391 330.945 129.417C330.786 129.472 330.625 129.528 330.463 129.585C330.39 129.611 330.318 129.636 330.246 129.662C330.022 129.743 329.796 129.824 329.57 129.91C329.563 129.913 329.555 129.915 329.547 129.918C329.312 130.006 329.075 130.098 328.838 130.191C328.766 130.22 328.691 130.249 328.62 130.278C328.449 130.346 328.276 130.415 328.104 130.486C328.06 130.504 328.017 130.521 327.973 130.539C327.936 130.555 327.898 130.571 327.863 130.586C327.67 130.666 327.475 130.748 327.281 130.832C327.221 130.857 327.164 130.881 327.106 130.907C326.856 131.014 326.603 131.127 326.35 131.242C326.29 131.269 326.23 131.296 326.168 131.324C325.969 131.414 325.771 131.506 325.57 131.601C325.488 131.639 325.404 131.678 325.321 131.718C325.128 131.81 324.934 131.903 324.739 131.998C324.667 132.033 324.594 132.069 324.523 132.104C324.259 132.234 323.995 132.367 323.728 132.504C323.687 132.524 323.646 132.546 323.606 132.567C323.379 132.684 323.15 132.803 322.921 132.926C322.835 132.971 322.749 133.017 322.663 133.063C322.467 133.169 322.269 133.276 322.071 133.385C321.989 133.431 321.907 133.477 321.823 133.522C321.548 133.676 321.272 133.831 320.995 133.991C320.603 134.217 320.215 134.447 319.829 134.679C319.784 134.708 319.737 134.735 319.692 134.763C319.326 134.984 318.965 135.209 318.607 135.436C318.545 135.474 318.484 135.513 318.421 135.552C318.069 135.778 317.72 136.004 317.374 136.233C317.314 136.273 317.254 136.311 317.194 136.352C316.845 136.585 316.495 136.82 316.153 137.058C316.108 137.086 316.068 137.116 316.024 137.145C315.669 137.393 315.313 137.642 314.963 137.894C314.956 137.898 314.951 137.901 314.947 137.904C314.594 138.158 314.245 138.413 313.901 138.67C313.858 138.702 313.814 138.733 313.771 138.765C313.443 139.011 313.117 139.257 312.797 139.504C312.741 139.547 312.685 139.589 312.631 139.631C312.314 139.875 312.001 140.121 311.692 140.367C311.641 140.408 311.588 140.45 311.535 140.491C311.223 140.742 310.913 140.992 310.605 141.245C310.57 141.274 310.534 141.303 310.498 141.333C310.184 141.593 309.87 141.853 309.563 142.114C309.556 142.12 309.549 142.126 309.542 142.131C309.233 142.393 308.927 142.655 308.626 142.917C308.587 142.951 308.548 142.986 308.508 143.02C308.221 143.27 307.94 143.519 307.662 143.768C307.613 143.812 307.564 143.855 307.515 143.899C307.242 144.145 306.971 144.39 306.704 144.634C306.658 144.676 306.614 144.717 306.569 144.759C306.298 145.008 306.03 145.257 305.768 145.504C305.74 145.53 305.712 145.557 305.683 145.584C305.416 145.836 305.154 146.087 304.893 146.336C304.883 146.347 304.872 146.358 304.86 146.368C304.601 146.62 304.345 146.869 304.095 147.116C304.072 147.138 304.05 147.159 304.029 147.181C304.014 147.194 304.003 147.207 303.988 147.22C303.756 147.45 303.529 147.677 303.304 147.903C303.261 147.945 303.219 147.988 303.177 148.031C302.955 148.255 302.735 148.479 302.521 148.699C302.488 148.733 302.455 148.768 302.422 148.802C302.199 149.031 301.981 149.259 301.767 149.483C301.766 149.484 301.765 149.485 301.762 149.486C301.546 149.713 301.336 149.937 301.13 150.158C301.1 150.189 301.072 150.22 301.043 150.251C300.849 150.459 300.657 150.665 300.471 150.869C300.435 150.907 300.401 150.944 300.365 150.983C300.182 151.184 300.002 151.382 299.825 151.578C299.799 151.607 299.773 151.635 299.746 151.665C299.566 151.866 299.391 152.064 299.218 152.257C299.216 152.26 299.213 152.263 299.211 152.265C299.038 152.462 298.869 152.652 298.708 152.839C298.693 152.856 298.677 152.874 298.662 152.89C298.655 152.9 298.645 152.91 298.636 152.92C298.484 153.095 298.338 153.264 298.197 153.43C298.167 153.463 298.139 153.496 298.112 153.528C297.971 153.693 297.834 153.853 297.703 154.009C297.684 154.032 297.666 154.052 297.648 154.074C297.521 154.227 297.395 154.375 297.275 154.519C297.267 154.532 297.254 154.545 297.245 154.557C297.12 154.705 297.005 154.847 296.891 154.986C296.87 155.012 296.849 155.037 296.828 155.062C296.72 155.195 296.616 155.322 296.516 155.445C296.499 155.467 296.483 155.487 296.465 155.509C296.366 155.632 296.27 155.751 296.181 155.863C296.172 155.874 296.165 155.883 296.156 155.893C296.07 156.001 295.991 156.102 295.916 156.199C295.904 156.213 295.891 156.228 295.881 156.243C295.804 156.34 295.734 156.43 295.669 156.514C295.663 156.522 295.656 156.531 295.649 156.538C295.636 156.555 295.626 156.568 295.614 156.583C295.595 156.608 295.577 156.631 295.561 156.653C295.539 156.681 295.519 156.707 295.498 156.733C295.483 156.755 295.465 156.777 295.448 156.797C295.43 156.823 295.412 156.846 295.393 156.87C295.381 156.888 295.367 156.906 295.354 156.922C295.337 156.946 295.32 156.966 295.306 156.987C295.291 157.005 295.279 157.022 295.265 157.038C295.253 157.055 295.241 157.071 295.229 157.087C295.219 157.101 295.207 157.116 295.198 157.129C295.183 157.149 295.17 157.167 295.156 157.183C295.151 157.191 295.145 157.199 295.139 157.206C295.122 157.229 295.108 157.248 295.096 157.265H295.095C295.082 157.282 295.07 157.298 295.063 157.309L304.306 162.671C304.314 162.66 304.326 162.645 304.338 162.627L304.339 162.627C304.35 162.61 304.367 162.59 304.382 162.569Z" fill="#EA91FF"/>
<path fill-rule="evenodd" clip-rule="evenodd" d="M316.575 172.561L328.57 184.865C329.055 185.363 329.694 185.626 330.419 185.626C331.029 185.626 331.66 185.441 332.293 185.076C333.094 184.615 333.84 183.896 334.454 182.999L352.56 156.562C346.667 184.303 333.036 205.412 330.01 209.856C325.418 208.349 305.591 199.716 305.357 163.018C307.184 160.609 316.987 148.198 330.762 140.26C340.909 134.412 348.904 133.54 352.765 133.54C353.794 133.54 354.602 133.599 355.166 133.661C355.161 134.095 355.153 134.55 355.143 135.031L333.003 167.362L325.935 160.112C325.481 159.648 324.86 159.392 324.182 159.392C323.611 159.392 323.022 159.564 322.432 159.904C321.731 160.308 321.068 160.93 320.518 161.701L317.098 166.485C316.406 167.449 315.95 168.565 315.81 169.629C315.648 170.846 315.919 171.887 316.575 172.561ZM317.951 167.094L321.372 162.309C321.837 161.659 322.385 161.14 322.955 160.811C323.387 160.563 323.806 160.439 324.182 160.439C324.576 160.439 324.921 160.574 325.183 160.843L333.145 169.009L356.185 135.366C356.206 134.498 356.219 133.629 356.217 132.755C356.038 132.721 354.829 132.492 352.765 132.492C348.454 132.492 340.41 133.49 330.237 139.353C315.194 148.024 304.85 161.938 304.306 162.671C304.429 204.056 329.14 210.728 330.442 211.079C331.36 209.767 348.832 184.839 354.543 151.809L333.588 182.408C333.062 183.177 332.433 183.786 331.769 184.169C331.295 184.442 330.832 184.579 330.419 184.579C329.989 184.579 329.612 184.43 329.322 184.135L317.326 171.83C316.902 171.393 316.731 170.659 316.849 169.765C316.968 168.871 317.357 167.922 317.951 167.094Z" fill="#52BFA5"/>
</g>
</svg>
